<?xml version="1.0" encoding="utf-8"?>
<!DOCTYPE svg PUBLIC "-//W3C//DTD SVG 20010904//EN" "http://www.w3.org/TR/2001/REC-SVG-20010904/DTD/svg10.dtd">
<svg xmlns="http://www.w3.org/2000/svg" xml:space="preserve" xmlns:xlink="http://www.w3.org/1999/xlink" width="464" height="464" viewBox="0 0 464 464">
<defs>
<mask id="qrmask"><g fill="#ffffff">
<g transform="translate(176,32) scale(2.6666666666667)"><rect width="6" height="6"/></g>
<g transform="translate(208,32) scale(2.6666666666667)"><rect width="6" height="6"/></g>
<g transform="translate(224,32) scale(2.6666666666667)"><rect width="6" height="6"/></g>
<g transform="translate(240,32) scale(2.6666666666667)"><rect width="6" height="6"/></g>
<g transform="translate(288,32) scale(2.6666666666667)"><rect width="6" height="6"/></g>
<g transform="translate(176,48) scale(2.6666666666667)"><rect width="6" height="6"/></g>
<g transform="translate(256,48) scale(2.6666666666667)"><rect width="6" height="6"/></g>
<g transform="translate(272,48) scale(2.6666666666667)"><rect width="6" height="6"/></g>
<g transform="translate(288,48) scale(2.6666666666667)"><rect width="6" height="6"/></g>
<g transform="translate(160,64) scale(2.6666666666667)"><rect width="6" height="6"/></g>
<g transform="translate(192,64) scale(2.6666666666667)"><rect width="6" height="6"/></g>
<g transform="translate(224,64) scale(2.6666666666667)"><rect width="6" height="6"/></g>
<g transform="translate(256,64) scale(2.6666666666667)"><rect width="6" height="6"/></g>
<g transform="translate(288,64) scale(2.6666666666667)"><rect width="6" height="6"/></g>
<g transform="translate(160,80) scale(2.6666666666667)"><rect width="6" height="6"/></g>
<g transform="translate(240,80) scale(2.6666666666667)"><rect width="6" height="6"/></g>
<g transform="translate(160,96) scale(2.6666666666667)"><rect width="6" height="6"/></g>
<g transform="translate(208,96) scale(2.6666666666667)"><rect width="6" height="6"/></g>
<g transform="translate(240,96) scale(2.6666666666667)"><rect width="6" height="6"/></g>
<g transform="translate(288,96) scale(2.6666666666667)"><rect width="6" height="6"/></g>
<g transform="translate(160,112) scale(2.6666666666667)"><rect width="6" height="6"/></g>
<g transform="translate(208,112) scale(2.6666666666667)"><rect width="6" height="6"/></g>
<g transform="translate(224,112) scale(2.6666666666667)"><rect width="6" height="6"/></g>
<g transform="translate(240,112) scale(2.6666666666667)"><rect width="6" height="6"/></g>
<g transform="translate(256,112) scale(2.6666666666667)"><rect width="6" height="6"/></g>
<g transform="translate(272,112) scale(2.6666666666667)"><rect width="6" height="6"/></g>
<g transform="translate(288,112) scale(2.6666666666667)"><rect width="6" height="6"/></g>
<g transform="translate(160,128) scale(2.6666666666667)"><rect width="6" height="6"/></g>
<g transform="translate(192,128) scale(2.6666666666667)"><rect width="6" height="6"/></g>
<g transform="translate(224,128) scale(2.6666666666667)"><rect width="6" height="6"/></g>
<g transform="translate(256,128) scale(2.6666666666667)"><rect width="6" height="6"/></g>
<g transform="translate(288,128) scale(2.6666666666667)"><rect width="6" height="6"/></g>
<g transform="translate(160,144) scale(2.6666666666667)"><rect width="6" height="6"/></g>
<g transform="translate(256,144) scale(2.6666666666667)"><rect width="6" height="6"/></g>
<g transform="translate(32,160) scale(2.6666666666667)"><rect width="6" height="6"/></g>
<g transform="translate(64,160) scale(2.6666666666667)"><rect width="6" height="6"/></g>
<g transform="translate(80,160) scale(2.6666666666667)"><rect width="6" height="6"/></g>
<g transform="translate(96,160) scale(2.6666666666667)"><rect width="6" height="6"/></g>
<g transform="translate(112,160) scale(2.6666666666667)"><rect width="6" height="6"/></g>
<g transform="translate(128,160) scale(2.6666666666667)"><rect width="6" height="6"/></g>
<g transform="translate(176,160) scale(2.6666666666667)"><rect width="6" height="6"/></g>
<g transform="translate(192,160) scale(2.6666666666667)"><rect width="6" height="6"/></g>
<g transform="translate(224,160) scale(2.6666666666667)"><rect width="6" height="6"/></g>
<g transform="translate(272,160) scale(2.6666666666667)"><rect width="6" height="6"/></g>
<g transform="translate(320,160) scale(2.6666666666667)"><rect width="6" height="6"/></g>
<g transform="translate(336,160) scale(2.6666666666667)"><rect width="6" height="6"/></g>
<g transform="translate(352,160) scale(2.6666666666667)"><rect width="6" height="6"/></g>
<g transform="translate(368,160) scale(2.6666666666667)"><rect width="6" height="6"/></g>
<g transform="translate(384,160) scale(2.6666666666667)"><rect width="6" height="6"/></g>
<g transform="translate(48,176) scale(2.6666666666667)"><rect width="6" height="6"/></g>
<g transform="translate(64,176) scale(2.6666666666667)"><rect width="6" height="6"/></g>
<g transform="translate(96,176) scale(2.6666666666667)"><rect width="6" height="6"/></g>
<g transform="translate(112,176) scale(2.6666666666667)"><rect width="6" height="6"/></g>
<g transform="translate(160,176) scale(2.6666666666667)"><rect width="6" height="6"/></g>
<g transform="translate(176,176) scale(2.6666666666667)"><rect width="6" height="6"/></g>
<g transform="translate(208,176) scale(2.6666666666667)"><rect width="6" height="6"/></g>
<g transform="translate(224,176) scale(2.6666666666667)"><rect width="6" height="6"/></g>
<g transform="translate(240,176) scale(2.6666666666667)"><rect width="6" height="6"/></g>
<g transform="translate(288,176) scale(2.6666666666667)"><rect width="6" height="6"/></g>
<g transform="translate(336,176) scale(2.6666666666667)"><rect width="6" height="6"/></g>
<g transform="translate(400,176) scale(2.6666666666667)"><rect width="6" height="6"/></g>
<g transform="translate(32,192) scale(2.6666666666667)"><rect width="6" height="6"/></g>
<g transform="translate(48,192) scale(2.6666666666667)"><rect width="6" height="6"/></g>
<g transform="translate(112,192) scale(2.6666666666667)"><rect width="6" height="6"/></g>
<g transform="translate(128,192) scale(2.6666666666667)"><rect width="6" height="6"/></g>
<g transform="translate(176,192) scale(2.6666666666667)"><rect width="6" height="6"/></g>
<g transform="translate(192,192) scale(2.6666666666667)"><rect width="6" height="6"/></g>
<g transform="translate(240,192) scale(2.6666666666667)"><rect width="6" height="6"/></g>
<g transform="translate(256,192) scale(2.6666666666667)"><rect width="6" height="6"/></g>
<g transform="translate(272,192) scale(2.6666666666667)"><rect width="6" height="6"/></g>
<g transform="translate(304,192) scale(2.6666666666667)"><rect width="6" height="6"/></g>
<g transform="translate(336,192) scale(2.6666666666667)"><rect width="6" height="6"/></g>
<g transform="translate(352,192) scale(2.6666666666667)"><rect width="6" height="6"/></g>
<g transform="translate(368,192) scale(2.6666666666667)"><rect width="6" height="6"/></g>
<g transform="translate(400,192) scale(2.6666666666667)"><rect width="6" height="6"/></g>
<g transform="translate(416,192) scale(2.6666666666667)"><rect width="6" height="6"/></g>
<g transform="translate(32,208) scale(2.6666666666667)"><rect width="6" height="6"/></g>
<g transform="translate(96,208) scale(2.6666666666667)"><rect width="6" height="6"/></g>
<g transform="translate(144,208) scale(2.6666666666667)"><rect width="6" height="6"/></g>
<g transform="translate(160,208) scale(2.6666666666667)"><rect width="6" height="6"/></g>
<g transform="translate(176,208) scale(2.6666666666667)"><rect width="6" height="6"/></g>
<g transform="translate(192,208) scale(2.6666666666667)"><rect width="6" height="6"/></g>
<g transform="translate(208,208) scale(2.6666666666667)"><rect width="6" height="6"/></g>
<g transform="translate(224,208) scale(2.6666666666667)"><rect width="6" height="6"/></g>
<g transform="translate(240,208) scale(2.6666666666667)"><rect width="6" height="6"/></g>
<g transform="translate(288,208) scale(2.6666666666667)"><rect width="6" height="6"/></g>
<g transform="translate(304,208) scale(2.6666666666667)"><rect width="6" height="6"/></g>
<g transform="translate(336,208) scale(2.6666666666667)"><rect width="6" height="6"/></g>
<g transform="translate(416,208) scale(2.6666666666667)"><rect width="6" height="6"/></g>
<g transform="translate(32,224) scale(2.6666666666667)"><rect width="6" height="6"/></g>
<g transform="translate(48,224) scale(2.6666666666667)"><rect width="6" height="6"/></g>
<g transform="translate(80,224) scale(2.6666666666667)"><rect width="6" height="6"/></g>
<g transform="translate(96,224) scale(2.6666666666667)"><rect width="6" height="6"/></g>
<g transform="translate(112,224) scale(2.6666666666667)"><rect width="6" height="6"/></g>
<g transform="translate(128,224) scale(2.6666666666667)"><rect width="6" height="6"/></g>
<g transform="translate(144,224) scale(2.6666666666667)"><rect width="6" height="6"/></g>
<g transform="translate(176,224) scale(2.6666666666667)"><rect width="6" height="6"/></g>
<g transform="translate(192,224) scale(2.6666666666667)"><rect width="6" height="6"/></g>
<g transform="translate(208,224) scale(2.6666666666667)"><rect width="6" height="6"/></g>
<g transform="translate(224,224) scale(2.6666666666667)"><rect width="6" height="6"/></g>
<g transform="translate(256,224) scale(2.6666666666667)"><rect width="6" height="6"/></g>
<g transform="translate(304,224) scale(2.6666666666667)"><rect width="6" height="6"/></g>
<g transform="translate(320,224) scale(2.6666666666667)"><rect width="6" height="6"/></g>
<g transform="translate(352,224) scale(2.6666666666667)"><rect width="6" height="6"/></g>
<g transform="translate(384,224) scale(2.6666666666667)"><rect width="6" height="6"/></g>
<g transform="translate(400,224) scale(2.6666666666667)"><rect width="6" height="6"/></g>
<g transform="translate(416,224) scale(2.6666666666667)"><rect width="6" height="6"/></g>
<g transform="translate(32,240) scale(2.6666666666667)"><rect width="6" height="6"/></g>
<g transform="translate(48,240) scale(2.6666666666667)"><rect width="6" height="6"/></g>
<g transform="translate(64,240) scale(2.6666666666667)"><rect width="6" height="6"/></g>
<g transform="translate(80,240) scale(2.6666666666667)"><rect width="6" height="6"/></g>
<g transform="translate(96,240) scale(2.6666666666667)"><rect width="6" height="6"/></g>
<g transform="translate(112,240) scale(2.6666666666667)"><rect width="6" height="6"/></g>
<g transform="translate(176,240) scale(2.6666666666667)"><rect width="6" height="6"/></g>
<g transform="translate(192,240) scale(2.6666666666667)"><rect width="6" height="6"/></g>
<g transform="translate(336,240) scale(2.6666666666667)"><rect width="6" height="6"/></g>
<g transform="translate(368,240) scale(2.6666666666667)"><rect width="6" height="6"/></g>
<g transform="translate(400,240) scale(2.6666666666667)"><rect width="6" height="6"/></g>
<g transform="translate(32,256) scale(2.6666666666667)"><rect width="6" height="6"/></g>
<g transform="translate(64,256) scale(2.6666666666667)"><rect width="6" height="6"/></g>
<g transform="translate(80,256) scale(2.6666666666667)"><rect width="6" height="6"/></g>
<g transform="translate(96,256) scale(2.6666666666667)"><rect width="6" height="6"/></g>
<g transform="translate(128,256) scale(2.6666666666667)"><rect width="6" height="6"/></g>
<g transform="translate(176,256) scale(2.6666666666667)"><rect width="6" height="6"/></g>
<g transform="translate(192,256) scale(2.6666666666667)"><rect width="6" height="6"/></g>
<g transform="translate(208,256) scale(2.6666666666667)"><rect width="6" height="6"/></g>
<g transform="translate(224,256) scale(2.6666666666667)"><rect width="6" height="6"/></g>
<g transform="translate(272,256) scale(2.6666666666667)"><rect width="6" height="6"/></g>
<g transform="translate(288,256) scale(2.6666666666667)"><rect width="6" height="6"/></g>
<g transform="translate(304,256) scale(2.6666666666667)"><rect width="6" height="6"/></g>
<g transform="translate(336,256) scale(2.6666666666667)"><rect width="6" height="6"/></g>
<g transform="translate(352,256) scale(2.6666666666667)"><rect width="6" height="6"/></g>
<g transform="translate(368,256) scale(2.6666666666667)"><rect width="6" height="6"/></g>
<g transform="translate(400,256) scale(2.6666666666667)"><rect width="6" height="6"/></g>
<g transform="translate(416,256) scale(2.6666666666667)"><rect width="6" height="6"/></g>
<g transform="translate(32,272) scale(2.6666666666667)"><rect width="6" height="6"/></g>
<g transform="translate(96,272) scale(2.6666666666667)"><rect width="6" height="6"/></g>
<g transform="translate(112,272) scale(2.6666666666667)"><rect width="6" height="6"/></g>
<g transform="translate(176,272) scale(2.6666666666667)"><rect width="6" height="6"/></g>
<g transform="translate(208,272) scale(2.6666666666667)"><rect width="6" height="6"/></g>
<g transform="translate(256,272) scale(2.6666666666667)"><rect width="6" height="6"/></g>
<g transform="translate(272,272) scale(2.6666666666667)"><rect width="6" height="6"/></g>
<g transform="translate(288,272) scale(2.6666666666667)"><rect width="6" height="6"/></g>
<g transform="translate(304,272) scale(2.6666666666667)"><rect width="6" height="6"/></g>
<g transform="translate(336,272) scale(2.6666666666667)"><rect width="6" height="6"/></g>
<g transform="translate(352,272) scale(2.6666666666667)"><rect width="6" height="6"/></g>
<g transform="translate(416,272) scale(2.6666666666667)"><rect width="6" height="6"/></g>
<g transform="translate(32,288) scale(2.6666666666667)"><rect width="6" height="6"/></g>
<g transform="translate(80,288) scale(2.6666666666667)"><rect width="6" height="6"/></g>
<g transform="translate(112,288) scale(2.6666666666667)"><rect width="6" height="6"/></g>
<g transform="translate(128,288) scale(2.6666666666667)"><rect width="6" height="6"/></g>
<g transform="translate(176,288) scale(2.6666666666667)"><rect width="6" height="6"/></g>
<g transform="translate(192,288) scale(2.6666666666667)"><rect width="6" height="6"/></g>
<g transform="translate(208,288) scale(2.6666666666667)"><rect width="6" height="6"/></g>
<g transform="translate(272,288) scale(2.6666666666667)"><rect width="6" height="6"/></g>
<g transform="translate(288,288) scale(2.6666666666667)"><rect width="6" height="6"/></g>
<g transform="translate(304,288) scale(2.6666666666667)"><rect width="6" height="6"/></g>
<g transform="translate(320,288) scale(2.6666666666667)"><rect width="6" height="6"/></g>
<g transform="translate(336,288) scale(2.6666666666667)"><rect width="6" height="6"/></g>
<g transform="translate(352,288) scale(2.6666666666667)"><rect width="6" height="6"/></g>
<g transform="translate(384,288) scale(2.6666666666667)"><rect width="6" height="6"/></g>
<g transform="translate(160,304) scale(2.6666666666667)"><rect width="6" height="6"/></g>
<g transform="translate(176,304) scale(2.6666666666667)"><rect width="6" height="6"/></g>
<g transform="translate(192,304) scale(2.6666666666667)"><rect width="6" height="6"/></g>
<g transform="translate(224,304) scale(2.6666666666667)"><rect width="6" height="6"/></g>
<g transform="translate(240,304) scale(2.6666666666667)"><rect width="6" height="6"/></g>
<g transform="translate(256,304) scale(2.6666666666667)"><rect width="6" height="6"/></g>
<g transform="translate(272,304) scale(2.6666666666667)"><rect width="6" height="6"/></g>
<g transform="translate(288,304) scale(2.6666666666667)"><rect width="6" height="6"/></g>
<g transform="translate(352,304) scale(2.6666666666667)"><rect width="6" height="6"/></g>
<g transform="translate(368,304) scale(2.6666666666667)"><rect width="6" height="6"/></g>
<g transform="translate(176,320) scale(2.6666666666667)"><rect width="6" height="6"/></g>
<g transform="translate(240,320) scale(2.6666666666667)"><rect width="6" height="6"/></g>
<g transform="translate(256,320) scale(2.6666666666667)"><rect width="6" height="6"/></g>
<g transform="translate(288,320) scale(2.6666666666667)"><rect width="6" height="6"/></g>
<g transform="translate(320,320) scale(2.6666666666667)"><rect width="6" height="6"/></g>
<g transform="translate(352,320) scale(2.6666666666667)"><rect width="6" height="6"/></g>
<g transform="translate(384,320) scale(2.6666666666667)"><rect width="6" height="6"/></g>
<g transform="translate(400,320) scale(2.6666666666667)"><rect width="6" height="6"/></g>
<g transform="translate(416,320) scale(2.6666666666667)"><rect width="6" height="6"/></g>
<g transform="translate(160,336) scale(2.6666666666667)"><rect width="6" height="6"/></g>
<g transform="translate(176,336) scale(2.6666666666667)"><rect width="6" height="6"/></g>
<g transform="translate(224,336) scale(2.6666666666667)"><rect width="6" height="6"/></g>
<g transform="translate(240,336) scale(2.6666666666667)"><rect width="6" height="6"/></g>
<g transform="translate(288,336) scale(2.6666666666667)"><rect width="6" height="6"/></g>
<g transform="translate(352,336) scale(2.6666666666667)"><rect width="6" height="6"/></g>
<g transform="translate(368,336) scale(2.6666666666667)"><rect width="6" height="6"/></g>
<g transform="translate(400,336) scale(2.6666666666667)"><rect width="6" height="6"/></g>
<g transform="translate(160,352) scale(2.6666666666667)"><rect width="6" height="6"/></g>
<g transform="translate(192,352) scale(2.6666666666667)"><rect width="6" height="6"/></g>
<g transform="translate(224,352) scale(2.6666666666667)"><rect width="6" height="6"/></g>
<g transform="translate(256,352) scale(2.6666666666667)"><rect width="6" height="6"/></g>
<g transform="translate(272,352) scale(2.6666666666667)"><rect width="6" height="6"/></g>
<g transform="translate(288,352) scale(2.6666666666667)"><rect width="6" height="6"/></g>
<g transform="translate(304,352) scale(2.6666666666667)"><rect width="6" height="6"/></g>
<g transform="translate(320,352) scale(2.6666666666667)"><rect width="6" height="6"/></g>
<g transform="translate(336,352) scale(2.6666666666667)"><rect width="6" height="6"/></g>
<g transform="translate(352,352) scale(2.6666666666667)"><rect width="6" height="6"/></g>
<g transform="translate(384,352) scale(2.6666666666667)"><rect width="6" height="6"/></g>
<g transform="translate(416,352) scale(2.6666666666667)"><rect width="6" height="6"/></g>
<g transform="translate(160,368) scale(2.6666666666667)"><rect width="6" height="6"/></g>
<g transform="translate(272,368) scale(2.6666666666667)"><rect width="6" height="6"/></g>
<g transform="translate(304,368) scale(2.6666666666667)"><rect width="6" height="6"/></g>
<g transform="translate(320,368) scale(2.6666666666667)"><rect width="6" height="6"/></g>
<g transform="translate(352,368) scale(2.6666666666667)"><rect width="6" height="6"/></g>
<g transform="translate(368,368) scale(2.6666666666667)"><rect width="6" height="6"/></g>
<g transform="translate(384,368) scale(2.6666666666667)"><rect width="6" height="6"/></g>
<g transform="translate(400,368) scale(2.6666666666667)"><rect width="6" height="6"/></g>
<g transform="translate(416,368) scale(2.6666666666667)"><rect width="6" height="6"/></g>
<g transform="translate(160,384) scale(2.6666666666667)"><rect width="6" height="6"/></g>
<g transform="translate(192,384) scale(2.6666666666667)"><rect width="6" height="6"/></g>
<g transform="translate(208,384) scale(2.6666666666667)"><rect width="6" height="6"/></g>
<g transform="translate(224,384) scale(2.6666666666667)"><rect width="6" height="6"/></g>
<g transform="translate(288,384) scale(2.6666666666667)"><rect width="6" height="6"/></g>
<g transform="translate(368,384) scale(2.6666666666667)"><rect width="6" height="6"/></g>
<g transform="translate(384,384) scale(2.6666666666667)"><rect width="6" height="6"/></g>
<g transform="translate(416,384) scale(2.6666666666667)"><rect width="6" height="6"/></g>
<g transform="translate(176,400) scale(2.6666666666667)"><rect width="6" height="6"/></g>
<g transform="translate(208,400) scale(2.6666666666667)"><rect width="6" height="6"/></g>
<g transform="translate(256,400) scale(2.6666666666667)"><rect width="6" height="6"/></g>
<g transform="translate(272,400) scale(2.6666666666667)"><rect width="6" height="6"/></g>
<g transform="translate(288,400) scale(2.6666666666667)"><rect width="6" height="6"/></g>
<g transform="translate(304,400) scale(2.6666666666667)"><rect width="6" height="6"/></g>
<g transform="translate(320,400) scale(2.6666666666667)"><rect width="6" height="6"/></g>
<g transform="translate(336,400) scale(2.6666666666667)"><rect width="6" height="6"/></g>
<g transform="translate(352,400) scale(2.6666666666667)"><rect width="6" height="6"/></g>
<g transform="translate(368,400) scale(2.6666666666667)"><rect width="6" height="6"/></g>
<g transform="translate(416,400) scale(2.6666666666667)"><rect width="6" height="6"/></g>
<g transform="translate(160,416) scale(2.6666666666667)"><rect width="6" height="6"/></g>
<g transform="translate(208,416) scale(2.6666666666667)"><rect width="6" height="6"/></g>
<g transform="translate(304,416) scale(2.6666666666667)"><rect width="6" height="6"/></g>
<g transform="translate(336,416) scale(2.6666666666667)"><rect width="6" height="6"/></g>
<g transform="translate(352,416) scale(2.6666666666667)"><rect width="6" height="6"/></g>
<g transform="translate(368,416) scale(2.6666666666667)"><rect width="6" height="6"/></g>
<g transform="translate(384,416) scale(2.6666666666667)"><rect width="6" height="6"/></g>
<g transform="translate(400,416) scale(2.6666666666667)"><rect width="6" height="6"/></g>
<g transform="translate(416,416) scale(2.6666666666667)"><rect width="6" height="6"/></g>
<g transform="translate(32,32)"><g transform="scale(8)"><path d="M0,0v14h14V0H0z M12,12H2V2h10V12z"/></g></g>
<g transform="translate(320,32)"><g transform="scale(8)"><path d="M0,0v14h14V0H0z M12,12H2V2h10V12z"/></g></g>
<g transform="translate(32,320)"><g transform="scale(8)"><path d="M0,0v14h14V0H0z M12,12H2V2h10V12z"/></g></g>
<g transform="translate(64,64)"><g transform="scale(8)"><rect width="6" height="6"/></g></g>
<g transform="translate(352,64)"><g transform="scale(8)"><rect width="6" height="6"/></g></g>
<g transform="translate(64,352)"><g transform="scale(8)"><rect width="6" height="6"/></g></g>
</g></mask></defs>
<rect width="464" height="464" fill="#ffffff" x="0" y="0" />
<rect x="0" y="0" width="464" height="464" mask="url(#qrmask)" fill="#000000" />
</svg>